<svg width="48" height="48" viewBox="0 0 48 48" fill="none" xmlns="http://www.w3.org/2000/svg">
<path d="M6.18041 30.9417C6.22141 31.0432 6.26775 31.1369 6.31765 31.2306C6.34083 31.2853 6.37291 31.3419 6.40143 31.3927C6.44777 31.4943 6.49767 31.5919 6.5458 31.6895L6.82563 32.205C6.87732 32.3007 6.92723 32.3944 6.98605 32.4882C7.08408 32.6717 7.19993 32.8513 7.30153 33.0349C7.34787 33.111 7.39065 33.1872 7.44233 33.2634C7.6384 33.5973 7.81663 33.8745 8.00735 34.144C8.14281 34.3451 8.27827 34.5423 8.42442 34.7396C8.47255 34.8138 8.52602 34.888 8.57593 34.9622L8.96983 35.4855C9.01796 35.546 9.06608 35.6163 9.11777 35.6788C9.29244 35.9092 9.47781 36.1318 9.66318 36.3583C9.66318 36.3622 9.66852 36.3661 9.67209 36.372C9.90202 36.6883 10.1498 36.9695 10.4207 37.2194L10.4278 37.2272C10.5704 37.3873 10.713 37.5455 10.8645 37.7017L11.0445 37.8911C11.2424 38.0942 11.4402 38.2953 11.6487 38.4906C11.6523 38.4906 11.6541 38.4945 11.6577 38.4964L11.7593 38.5941C11.9411 38.7679 12.1246 38.9397 12.3118 39.0998L12.5346 39.3048C12.6861 39.4376 12.8429 39.5626 12.998 39.6934L13.2404 39.8965C13.4062 40.0332 13.5826 40.166 13.7519 40.2987C13.8143 40.3476 13.8767 40.3964 13.9409 40.4413L13.9926 40.4862L14.4934 40.8455L14.7073 41.0017C14.9693 41.1852 15.2295 41.3571 15.4898 41.5289C15.5646 41.5699 15.6395 41.6148 15.709 41.6617C15.9015 41.7828 16.1011 41.9058 16.2954 42.0171C16.4023 42.0835 16.5129 42.1401 16.6234 42.2006C16.757 42.2826 16.8961 42.3627 17.0387 42.4447C17.0779 42.4584 17.1099 42.472 17.142 42.4916L17.1492 42.4838C17.208 42.513 17.2632 42.5443 17.3203 42.5755C17.5342 42.6927 17.757 42.804 17.9887 42.9133C18.0314 42.9329 18.0778 42.9524 18.1241 42.9797C18.3808 43.1027 18.6374 43.2199 18.903 43.3332C18.9636 43.3527 19.0278 43.3859 19.0902 43.4113C19.3308 43.5108 19.5785 43.6124 19.8245 43.7081L19.9136 43.7432C20.1863 43.8448 20.4555 43.9424 20.7335 44.0342C20.7977 44.0537 20.8636 44.0791 20.9314 44.0986C21.2148 44.1923 21.4893 44.3036 21.7762 44.3622C40.0866 48 45.407 32.3612 45.407 32.3612C40.9368 38.7073 33.0034 40.3808 25.4907 38.5179C25.2126 38.4476 24.9346 38.35 24.653 38.2602C24.2555 38.1369 23.8614 38.0008 23.4713 37.8521L23.6406 37.9087L23.5301 37.8618C23.2877 37.772 23.0542 37.6724 22.8171 37.5728C22.7591 37.5459 22.7002 37.5211 22.6407 37.4986L22.6211 37.4928C22.3591 37.3776 22.1042 37.2604 21.8511 37.1374C21.7958 37.1179 21.7495 37.0905 21.6942 37.0671C21.3944 36.924 21.0973 36.7743 20.803 36.618L21.049 36.7371C20.9848 36.706 20.9218 36.6722 20.8601 36.6356C20.6925 36.5497 20.525 36.452 20.361 36.3603C20.2361 36.2954 20.1131 36.2264 19.9921 36.1533L20.0277 36.1728C19.8263 36.0556 19.6249 35.9287 19.4217 35.8096C19.3611 35.7627 19.2916 35.7237 19.2221 35.6807C18.92 35.4884 18.6217 35.2892 18.3273 35.0832L18.4396 35.1574C18.3642 35.1064 18.2904 35.0523 18.2186 34.9954L18.2293 35.0032C18.0377 34.8743 17.8499 34.7388 17.666 34.597C17.6054 34.5541 17.5502 34.5072 17.4878 34.4603C17.2958 34.3167 17.1068 34.1683 16.921 34.0151L16.9638 34.0483C16.8889 33.9819 16.8087 33.9194 16.7285 33.855C16.5717 33.7203 16.413 33.5914 16.2562 33.4508L16.0459 33.2673C15.8217 33.0719 15.6018 32.8707 15.3864 32.6639L15.3846 32.6619L14.7661 32.0469L14.5879 31.8633C14.4417 31.7012 14.292 31.547 14.1423 31.3869L13.9694 31.1916C13.7849 30.9914 13.6048 30.7863 13.4293 30.5765L13.4186 30.5628L13.3883 30.5355C13.1996 30.3084 13.0136 30.0787 12.8305 29.8462C12.7823 29.7857 12.7378 29.7212 12.6879 29.6568L12.2833 29.1198C12.1009 28.8689 11.9226 28.6143 11.7486 28.3563L11.6773 28.247C7.51006 22.0454 6.00217 13.4869 9.337 6.46521L6.39251 10.5443C2.60496 16.4784 3.07373 24.1953 5.97009 30.4965C6.03604 30.6507 6.10912 30.7952 6.18041 30.9417Z" fill="#1266A9"/>
<path d="M18.937 22.3929L18.9174 22.3617L18.9014 22.3383L18.937 22.3929Z" fill="black"/>
<path d="M20.9296 24.9549L21.09 25.1306C21.2932 25.3454 21.5017 25.5543 21.7138 25.7633L21.7406 25.7886C21.9544 25.9956 22.1951 26.2124 22.4428 26.4233L22.4802 26.4545C22.5408 26.4994 22.5925 26.5521 22.6514 26.597C22.9009 26.8079 23.1522 27.0091 23.4142 27.2102L23.4409 27.2278C23.5515 27.3156 23.6691 27.3957 23.7939 27.4816C23.8438 27.5167 23.9008 27.5636 23.9543 27.5988C24.1432 27.7315 24.3286 27.8546 24.5193 27.9815C24.5496 27.9951 24.5763 28.0127 24.6048 28.0264C24.7653 28.1338 24.9399 28.2373 25.1075 28.331C25.1663 28.3701 25.2233 28.3993 25.2839 28.4364C25.4033 28.5009 25.521 28.5692 25.6351 28.6356L25.6921 28.6629C25.9327 28.7918 26.1787 28.9129 26.4193 29.032C26.4799 29.0574 26.5316 29.0789 26.5833 29.1062C26.7811 29.1999 26.9825 29.2897 27.1804 29.3718C27.2695 29.405 27.3533 29.444 27.437 29.4733C27.6188 29.5475 27.8096 29.6158 27.9896 29.6842L28.2391 29.7721C28.4993 29.8599 28.7631 29.9751 29.0394 30.022C43.179 32.5721 46.4514 20.7059 46.4514 20.7059C43.5052 25.3278 37.8033 27.5304 31.7272 25.8101C31.4239 25.7263 31.1231 25.6319 30.8253 25.527L30.9269 25.5582C30.8414 25.5329 30.7665 25.5036 30.6845 25.4762C30.4992 25.4059 30.3084 25.3376 30.1284 25.2653L29.8718 25.1599C29.6721 25.072 29.4689 24.99 29.2747 24.8963C29.2141 24.867 29.1588 24.8475 29.1125 24.8182C28.8629 24.6952 28.6116 24.5741 28.3674 24.4452L28.0003 24.2363L27.7882 24.1191C27.6242 24.0254 27.4727 23.9278 27.3158 23.8282C27.2758 23.8076 27.2371 23.7841 27.2 23.7579L27.2053 23.7598C27.0164 23.631 26.8203 23.506 26.6385 23.3752C26.5779 23.3381 26.5227 23.2932 26.4656 23.2541L26.0949 22.9905C25.8382 22.7952 25.5869 22.5863 25.332 22.3832C25.275 22.3266 25.2198 22.2797 25.1645 22.229C22.4927 19.9385 20.3859 16.8084 19.386 13.2644C18.3327 9.57972 18.5644 5.44791 20.3842 2.09521L18.1473 5.5475C15.4006 9.84528 15.5557 15.59 17.6946 20.1357C18.0849 20.9754 18.4806 21.6842 18.9173 22.3598C19.3237 22.9964 19.7728 23.7423 20.3147 24.2539C20.5072 24.494 20.7139 24.7225 20.9296 24.9549Z" fill="#1266A9"/>
<path d="M8.01643 34.1558L8.0093 34.1441L7.99683 34.1265L8.01643 34.1558ZM15.4276 32.703L15.4454 32.7167L15.4489 32.7225L15.4276 32.703Z" fill="black"/>
<path d="M28.0323 1.81011C26.4122 4.40127 26.2571 7.61923 27.3729 10.476C28.5581 13.5104 30.9804 15.8926 33.8037 17.0212C33.9195 17.0701 34.0318 17.1111 34.1512 17.1579L34.3081 17.2106C34.4721 17.2673 34.6378 17.3337 34.8072 17.3747C42.6158 19.0168 44.7297 13.0046 45.2982 12.1201C43.4392 15.0295 40.3218 15.7286 36.4969 14.7152C36.1643 14.6263 35.8369 14.5155 35.5165 14.3832L35.5754 14.4047C35.1767 14.2536 34.7864 14.0775 34.4061 13.8775L34.4739 13.9107C33.7431 13.5201 33.1157 13.0984 32.5328 12.6141C29.1142 9.78277 27.0003 4.39151 29.2319 0L28.0323 1.81011Z" fill="#1266A9"/>
</svg>
